<mxfile host="app.diagrams.net" modified="2022-05-16T13:35:27.278Z" agent="5.0 (Windows NT 10.0; Win64; x64) AppleWebKit/537.36 (KHTML, like Gecko) Chrome/101.0.4951.54 Safari/537.36" etag="G5DwTu0FCf1m-6tTappE" version="17.4.6" type="github">
  <diagram id="VqgXRLrBvNbygNw6Rozs" name="第 1 页">
    <mxGraphModel dx="2310" dy="1950" grid="1" gridSize="10" guides="1" tooltips="1" connect="1" arrows="1" fold="1" page="1" pageScale="1" pageWidth="827" pageHeight="1169" math="0" shadow="0">
      <root>
        <mxCell id="0" />
        <mxCell id="1" parent="0" />
        <mxCell id="nAFvnRcRpUf-ySoXGbO3-3" value="" style="rounded=0;whiteSpace=wrap;html=1;" parent="1" vertex="1">
          <mxGeometry x="200" y="90" width="510" height="570" as="geometry" />
        </mxCell>
        <mxCell id="nAFvnRcRpUf-ySoXGbO3-2" value="信息传输提供者 微服务集群" style="verticalLabelPosition=bottom;verticalAlign=top;html=1;shape=mxgraph.basic.layered_rect;dx=10;outlineConnect=0;" parent="1" vertex="1">
          <mxGeometry x="516" y="550" width="100" height="60" as="geometry" />
        </mxCell>
        <mxCell id="nAFvnRcRpUf-ySoXGbO3-4" value="用户管理提供者 微服务集群" style="verticalLabelPosition=bottom;verticalAlign=top;html=1;shape=mxgraph.basic.layered_rect;dx=10;outlineConnect=0;" parent="1" vertex="1">
          <mxGeometry x="516" y="460" width="100" height="60" as="geometry" />
        </mxCell>
        <mxCell id="nAFvnRcRpUf-ySoXGbO3-5" value="用户管理与信息传输&lt;br&gt;消费者 微服务集群" style="verticalLabelPosition=bottom;verticalAlign=top;html=1;shape=mxgraph.basic.layered_rect;dx=10;outlineConnect=0;" parent="1" vertex="1">
          <mxGeometry x="280" y="500" width="100" height="60" as="geometry" />
        </mxCell>
        <mxCell id="nAFvnRcRpUf-ySoXGbO3-6" value="" style="endArrow=classic;html=1;rounded=0;edgeStyle=orthogonalEdgeStyle;" parent="1" source="nAFvnRcRpUf-ySoXGbO3-5" target="nAFvnRcRpUf-ySoXGbO3-4" edge="1">
          <mxGeometry width="50" height="50" relative="1" as="geometry">
            <mxPoint x="46" y="630" as="sourcePoint" />
            <mxPoint x="96" y="580" as="targetPoint" />
          </mxGeometry>
        </mxCell>
        <mxCell id="nAFvnRcRpUf-ySoXGbO3-7" value="" style="endArrow=classic;html=1;rounded=0;edgeStyle=orthogonalEdgeStyle;" parent="1" source="nAFvnRcRpUf-ySoXGbO3-5" target="nAFvnRcRpUf-ySoXGbO3-2" edge="1">
          <mxGeometry width="50" height="50" relative="1" as="geometry">
            <mxPoint x="390" y="540" as="sourcePoint" />
            <mxPoint x="526" y="500" as="targetPoint" />
          </mxGeometry>
        </mxCell>
        <mxCell id="nAFvnRcRpUf-ySoXGbO3-8" value="公告模块提供者 微服务集群" style="verticalLabelPosition=bottom;verticalAlign=top;html=1;shape=mxgraph.basic.layered_rect;dx=10;outlineConnect=0;" parent="1" vertex="1">
          <mxGeometry x="506" y="210" width="100" height="60" as="geometry" />
        </mxCell>
        <mxCell id="nAFvnRcRpUf-ySoXGbO3-9" value="业务申请提供者 微服务集群" style="verticalLabelPosition=bottom;verticalAlign=top;html=1;shape=mxgraph.basic.layered_rect;dx=10;outlineConnect=0;" parent="1" vertex="1">
          <mxGeometry x="506" y="120" width="100" height="60" as="geometry" />
        </mxCell>
        <mxCell id="nAFvnRcRpUf-ySoXGbO3-10" value="业务申请与公告模块&lt;br&gt;消费者 微服务集群" style="verticalLabelPosition=bottom;verticalAlign=top;html=1;shape=mxgraph.basic.layered_rect;dx=10;outlineConnect=0;" parent="1" vertex="1">
          <mxGeometry x="270" y="160" width="100" height="60" as="geometry" />
        </mxCell>
        <mxCell id="nAFvnRcRpUf-ySoXGbO3-11" value="" style="endArrow=classic;html=1;rounded=0;edgeStyle=orthogonalEdgeStyle;" parent="1" source="nAFvnRcRpUf-ySoXGbO3-10" target="nAFvnRcRpUf-ySoXGbO3-9" edge="1">
          <mxGeometry width="50" height="50" relative="1" as="geometry">
            <mxPoint x="36" y="290" as="sourcePoint" />
            <mxPoint x="86" y="240" as="targetPoint" />
          </mxGeometry>
        </mxCell>
        <mxCell id="nAFvnRcRpUf-ySoXGbO3-12" value="" style="endArrow=classic;html=1;rounded=0;edgeStyle=orthogonalEdgeStyle;" parent="1" source="nAFvnRcRpUf-ySoXGbO3-10" target="nAFvnRcRpUf-ySoXGbO3-8" edge="1">
          <mxGeometry width="50" height="50" relative="1" as="geometry">
            <mxPoint x="380" y="200" as="sourcePoint" />
            <mxPoint x="516" y="160" as="targetPoint" />
          </mxGeometry>
        </mxCell>
        <mxCell id="nAFvnRcRpUf-ySoXGbO3-13" value="nacos" style="strokeWidth=2;html=1;shape=mxgraph.flowchart.multi-document;whiteSpace=wrap;fontSize=18;" parent="1" vertex="1">
          <mxGeometry x="276" y="-60" width="88" height="60" as="geometry" />
        </mxCell>
        <mxCell id="nAFvnRcRpUf-ySoXGbO3-14" value="" style="shape=singleArrow;direction=south;whiteSpace=wrap;html=1;" parent="1" vertex="1">
          <mxGeometry x="300" y="10" width="40" height="80" as="geometry" />
        </mxCell>
        <mxCell id="nAFvnRcRpUf-ySoXGbO3-15" value="" style="strokeWidth=2;html=1;shape=mxgraph.flowchart.annotation_2;align=left;labelPosition=right;pointerEvents=1;" parent="1" vertex="1">
          <mxGeometry x="370" y="-80" width="136" height="100" as="geometry" />
        </mxCell>
        <mxCell id="nAFvnRcRpUf-ySoXGbO3-16" value="&lt;font style=&quot;font-size: 17px&quot;&gt;config&lt;/font&gt;" style="label;whiteSpace=wrap;html=1;image=img/clipart/Gear_128x128.png" parent="1" vertex="1">
          <mxGeometry x="510" y="-110" width="140" height="60" as="geometry" />
        </mxCell>
        <mxCell id="nAFvnRcRpUf-ySoXGbO3-17" value="&lt;font style=&quot;font-size: 17px&quot;&gt;register&lt;/font&gt;" style="label;whiteSpace=wrap;html=1;image=img/clipart/Gear_128x128.png" parent="1" vertex="1">
          <mxGeometry x="506" y="-10" width="140" height="60" as="geometry" />
        </mxCell>
        <mxCell id="nAFvnRcRpUf-ySoXGbO3-18" value="Gateway" style="strokeWidth=2;html=1;shape=mxgraph.flowchart.multi-document;whiteSpace=wrap;fontSize=23;" parent="1" vertex="1">
          <mxGeometry x="-100" y="280" width="160" height="90" as="geometry" />
        </mxCell>
        <mxCell id="nAFvnRcRpUf-ySoXGbO3-19" value="sentinel" style="strokeWidth=2;html=1;shape=mxgraph.flowchart.multi-document;whiteSpace=wrap;fontSize=18;" parent="1" vertex="1">
          <mxGeometry x="280" y="-190" width="90" height="70" as="geometry" />
        </mxCell>
        <mxCell id="nAFvnRcRpUf-ySoXGbO3-26" value="" style="verticalLabelPosition=bottom;verticalAlign=top;html=1;shape=mxgraph.basic.rect;fillColor2=none;strokeWidth=1;size=20;indent=5;fontSize=23;" parent="1" vertex="1">
          <mxGeometry x="-450" y="150" width="210" height="370" as="geometry" />
        </mxCell>
        <mxCell id="nAFvnRcRpUf-ySoXGbO3-29" value="" style="verticalLabelPosition=bottom;verticalAlign=top;html=1;strokeWidth=2;shape=mxgraph.arrows2.arrow;dy=0.6;dx=40;notch=0;fontSize=23;" parent="1" vertex="1">
          <mxGeometry x="-220" y="290" width="100" height="70" as="geometry" />
        </mxCell>
        <mxCell id="nAFvnRcRpUf-ySoXGbO3-36" value="" style="line;strokeWidth=2;html=1;fontSize=23;" parent="1" vertex="1">
          <mxGeometry x="380" y="-170" width="120" height="10" as="geometry" />
        </mxCell>
        <mxCell id="nAFvnRcRpUf-ySoXGbO3-38" value="&lt;font style=&quot;font-size: 17px&quot;&gt;interruption&lt;/font&gt;" style="label;whiteSpace=wrap;html=1;image=img/clipart/Gear_128x128.png" parent="1" vertex="1">
          <mxGeometry x="500" y="-195" width="164" height="60" as="geometry" />
        </mxCell>
        <mxCell id="nAFvnRcRpUf-ySoXGbO3-42" value="" style="rounded=1;whiteSpace=wrap;html=1;fontSize=23;labelBackgroundColor=#E0E0E0;textOpacity=0;fillColor=#fff2cc;strokeColor=#d6b656;" parent="1" vertex="1">
          <mxGeometry x="-417.5" y="227.25" width="145" height="90" as="geometry" />
        </mxCell>
        <mxCell id="nAFvnRcRpUf-ySoXGbO3-44" value="" style="rounded=1;whiteSpace=wrap;html=1;fontSize=23;labelBackgroundColor=#E0E0E0;textOpacity=0;fillColor=#fff2cc;strokeColor=#d6b656;" parent="1" vertex="1">
          <mxGeometry x="-418" y="365" width="145" height="90" as="geometry" />
        </mxCell>
        <mxCell id="nAFvnRcRpUf-ySoXGbO3-41" value="" style="sketch=0;pointerEvents=1;shadow=0;dashed=0;html=1;strokeColor=none;fillColor=#434445;aspect=fixed;labelPosition=center;verticalLabelPosition=bottom;verticalAlign=top;align=center;outlineConnect=0;shape=mxgraph.vvd.web_browser;fontSize=23;" parent="1" vertex="1">
          <mxGeometry x="-403" y="254.5" width="50" height="35.5" as="geometry" />
        </mxCell>
        <mxCell id="nAFvnRcRpUf-ySoXGbO3-43" value="web" style="text;html=1;strokeColor=none;fillColor=none;align=center;verticalAlign=middle;whiteSpace=wrap;rounded=0;labelBackgroundColor=#E0E0E0;fontSize=23;" parent="1" vertex="1">
          <mxGeometry x="-340" y="260" width="60" height="30" as="geometry" />
        </mxCell>
        <mxCell id="nAFvnRcRpUf-ySoXGbO3-40" value="" style="sketch=0;outlineConnect=0;strokeColor=#d6b656;fillColor=#fff2cc;dashed=0;verticalLabelPosition=bottom;verticalAlign=top;align=center;html=1;fontSize=12;fontStyle=0;aspect=fixed;shape=mxgraph.aws4.resourceIcon;resIcon=mxgraph.aws4.mobile_client;" parent="1" vertex="1">
          <mxGeometry x="-418" y="370" width="80" height="80" as="geometry" />
        </mxCell>
        <mxCell id="nAFvnRcRpUf-ySoXGbO3-45" value="小程序" style="text;html=1;strokeColor=none;fillColor=none;align=center;verticalAlign=middle;whiteSpace=wrap;rounded=0;labelBackgroundColor=#E0E0E0;fontSize=23;" parent="1" vertex="1">
          <mxGeometry x="-350" y="405" width="80" height="5" as="geometry" />
        </mxCell>
        <mxCell id="nAFvnRcRpUf-ySoXGbO3-46" value="" style="outlineConnect=0;dashed=0;verticalLabelPosition=bottom;verticalAlign=top;align=center;html=1;shape=mxgraph.aws3.emr_cluster;fillColor=#F58534;gradientColor=none;labelBackgroundColor=#E0E0E0;fontSize=23;" parent="1" vertex="1">
          <mxGeometry x="280" y="164.5" width="40" height="40" as="geometry" />
        </mxCell>
        <mxCell id="nAFvnRcRpUf-ySoXGbO3-47" value="" style="outlineConnect=0;dashed=0;verticalLabelPosition=bottom;verticalAlign=top;align=center;html=1;shape=mxgraph.aws3.emr_cluster;fillColor=#F58534;gradientColor=none;labelBackgroundColor=#E0E0E0;fontSize=23;" parent="1" vertex="1">
          <mxGeometry x="530" y="460" width="40" height="40" as="geometry" />
        </mxCell>
        <mxCell id="nAFvnRcRpUf-ySoXGbO3-48" value="" style="outlineConnect=0;dashed=0;verticalLabelPosition=bottom;verticalAlign=top;align=center;html=1;shape=mxgraph.aws3.emr_cluster;fillColor=#F58534;gradientColor=none;labelBackgroundColor=#E0E0E0;fontSize=23;" parent="1" vertex="1">
          <mxGeometry x="520" y="214.5" width="40" height="40" as="geometry" />
        </mxCell>
        <mxCell id="nAFvnRcRpUf-ySoXGbO3-49" value="" style="outlineConnect=0;dashed=0;verticalLabelPosition=bottom;verticalAlign=top;align=center;html=1;shape=mxgraph.aws3.emr_cluster;fillColor=#F58534;gradientColor=none;labelBackgroundColor=#E0E0E0;fontSize=23;" parent="1" vertex="1">
          <mxGeometry x="520" y="124.5" width="40" height="40" as="geometry" />
        </mxCell>
        <mxCell id="nAFvnRcRpUf-ySoXGbO3-52" value="" style="outlineConnect=0;dashed=0;verticalLabelPosition=bottom;verticalAlign=top;align=center;html=1;shape=mxgraph.aws3.emr_cluster;fillColor=#F58534;gradientColor=none;labelBackgroundColor=#E0E0E0;fontSize=23;" parent="1" vertex="1">
          <mxGeometry x="530" y="550" width="40" height="40" as="geometry" />
        </mxCell>
        <mxCell id="nAFvnRcRpUf-ySoXGbO3-53" value="" style="outlineConnect=0;dashed=0;verticalLabelPosition=bottom;verticalAlign=top;align=center;html=1;shape=mxgraph.aws3.emr_cluster;fillColor=#F58534;gradientColor=none;labelBackgroundColor=#E0E0E0;fontSize=23;" parent="1" vertex="1">
          <mxGeometry x="290" y="500" width="40" height="40" as="geometry" />
        </mxCell>
        <mxCell id="R6x-yhR93lSIb2rIGaAK-2" value="" style="verticalLabelPosition=bottom;verticalAlign=top;html=1;strokeWidth=2;shape=mxgraph.arrows2.arrow;dy=0.6;dx=40;notch=0;fontSize=23;" vertex="1" parent="1">
          <mxGeometry x="80" y="290" width="100" height="70" as="geometry" />
        </mxCell>
        <mxCell id="R6x-yhR93lSIb2rIGaAK-6" value="" style="swimlane;startSize=0;" vertex="1" parent="1">
          <mxGeometry x="210" y="110" width="480" height="195.5" as="geometry" />
        </mxCell>
        <mxCell id="R6x-yhR93lSIb2rIGaAK-7" value="" style="swimlane;startSize=0;" vertex="1" parent="1">
          <mxGeometry x="210" y="350" width="480" height="290" as="geometry" />
        </mxCell>
        <mxCell id="R6x-yhR93lSIb2rIGaAK-4" value="Redis" style="sketch=0;aspect=fixed;html=1;points=[];align=center;image;fontSize=12;image=img/lib/mscae/Cache_Redis_Product.svg;" vertex="1" parent="R6x-yhR93lSIb2rIGaAK-7">
          <mxGeometry x="260" y="29" width="50" height="42" as="geometry" />
        </mxCell>
        <mxCell id="R6x-yhR93lSIb2rIGaAK-3" value="MySQL" style="sketch=0;aspect=fixed;html=1;points=[];align=center;image;fontSize=12;image=img/lib/mscae/SQL_Database_generic.svg;" vertex="1" parent="R6x-yhR93lSIb2rIGaAK-7">
          <mxGeometry x="166" y="25" width="38" height="50" as="geometry" />
        </mxCell>
        <mxCell id="R6x-yhR93lSIb2rIGaAK-10" value="&lt;font style=&quot;font-size: 20px&quot;&gt;&lt;b&gt;Server2&lt;/b&gt;&lt;/font&gt;" style="text;html=1;strokeColor=none;fillColor=none;align=center;verticalAlign=middle;whiteSpace=wrap;rounded=0;strokeWidth=11;" vertex="1" parent="R6x-yhR93lSIb2rIGaAK-7">
          <mxGeometry x="30" y="29" width="60" height="30" as="geometry" />
        </mxCell>
        <mxCell id="R6x-yhR93lSIb2rIGaAK-8" value="" style="shape=singleArrow;direction=south;whiteSpace=wrap;html=1;" vertex="1" parent="1">
          <mxGeometry x="437.5" y="305.5" width="25" height="44.5" as="geometry" />
        </mxCell>
        <mxCell id="R6x-yhR93lSIb2rIGaAK-11" value="&lt;font style=&quot;font-size: 20px&quot;&gt;&lt;b&gt;Server1&lt;/b&gt;&lt;/font&gt;" style="text;html=1;strokeColor=none;fillColor=none;align=center;verticalAlign=middle;whiteSpace=wrap;rounded=0;" vertex="1" parent="1">
          <mxGeometry x="240" y="120" width="60" height="30" as="geometry" />
        </mxCell>
      </root>
    </mxGraphModel>
  </diagram>
</mxfile>
